Coordinates
version=1
nRows=60
nColumns=12
inDegrees=yes

Units are S.I. units (second, meters, Newtons, ...)
Angles are in degrees

endheader
time	SC_y	SC_z	SC_x	AC_y	AC_z	AC_x	GH_y	GH_z	GH_yy	EL_x	PS_y
       0.0              -24.02          30.83          46.75          51.63          0.327         -2.129          127.1          55.83          117.8          10.71          133.2
   0.03671              -24.02          30.83          46.76          51.63         0.3276         -2.127          127.0          55.82          117.8          10.72          133.2
   0.07341              -24.02          30.82          46.76          51.63         0.3282         -2.125          127.0          55.81          117.7          10.72          133.2
    0.1101              -24.02          30.82          46.77          51.63         0.3289         -2.123          127.0           55.8          117.7          10.72          133.2
    0.1468              -24.02          30.81          46.77          51.63         0.3296          -2.12          126.9          55.79          117.7          10.73          133.1
    0.1835              -24.02          30.81          46.78          51.63         0.3303         -2.118          126.9          55.78          117.7          10.73          133.1
    0.2202              -24.03           30.8          46.79          51.63         0.3311         -2.115          126.9          55.77          117.7          10.74          133.1
     0.257              -24.03          30.79           46.8          51.62          0.332         -2.112          126.8          55.76          117.7          10.74          133.1
    0.2937              -24.03          30.78          46.81          51.62         0.3329         -2.109          126.8          55.74          117.7          10.75          133.0
    0.3304              -24.03          30.78          46.81          51.62         0.3338         -2.106          126.8          55.73          117.7          10.75          133.0
    0.3671              -24.04          30.77          46.82          51.62         0.3349         -2.102          126.7          55.71          117.7          10.76          133.0
    0.4038              -24.04          30.76          46.83          51.62          0.336         -2.098          126.7           55.7          117.7          10.77          133.0
    0.4405              -24.04          30.75          46.85          51.62         0.3372         -2.094          126.6          55.68          117.7          10.78          132.9
    0.4772              -24.04          30.74          46.86          51.61         0.3385         -2.089          126.6          55.66          117.7          10.78          132.9
    0.5139              -24.05          30.72          46.87          51.61           0.34         -2.085          126.5          55.64          117.6          10.79          132.9
    0.5506              -24.05          30.71          46.88          51.61         0.3415         -2.079          126.4          55.62          117.6           10.8          132.8
    0.5873              -24.05           30.7           46.9          51.61         0.3432         -2.074          126.4           55.6          117.6          10.81          132.8
     0.624              -24.06          30.68          46.92           51.6          0.345         -2.067          126.3          55.57          117.6          10.82          132.7
    0.6607              -24.06          30.66          46.94           51.6          0.347          -2.06          126.2          55.54          117.6          10.84          132.7
    0.6974              -24.07          30.65          46.96           51.6         0.3491         -2.053          126.1          55.51          117.6          10.85          132.6
    0.7341              -24.07          30.63          46.98          51.59         0.3515         -2.045          126.0          55.47          117.5          10.87          132.5
    0.7709              -24.08           30.6           47.0          51.59         0.3542         -2.036          125.9          55.44          117.5          10.88          132.5
    0.8076              -24.09          30.58          47.03          51.58         0.3571         -2.026          125.8          55.39          117.5           10.9          132.4
    0.8443              -24.09          30.55          47.06          51.58         0.3603         -2.015          125.7          55.35          117.4          10.92          132.3
     0.881               -24.1          30.52          47.09          51.57         0.3638         -2.002          125.5           55.3          117.4          10.94          132.2
    0.9177              -24.11          30.49          47.13          51.57         0.3678         -1.988          125.3          55.24          117.4          10.97          132.1
    0.9544              -24.12          30.45          47.17          51.56         0.3723         -1.973          125.2          55.18          117.3           11.0          132.0
    0.9911              -24.13          30.41          47.22          51.55         0.3773         -1.956          124.9           55.1          117.3          11.03          131.8
     1.028              -24.15          30.36          47.27          51.54          0.383         -1.936          124.7          55.02          117.2          11.06          131.7
     1.065              -24.16           30.3          47.33          51.53         0.3895         -1.914          124.4          54.93          117.2           11.1          131.5
     1.101              -24.18          30.24           47.4          51.52         0.3968         -1.888          124.1          54.82          117.1          11.15          131.3
     1.138               -24.2          30.17          47.47          51.51         0.4053         -1.859          123.8           54.7          117.0           11.2          131.1
     1.175              -24.22          30.08          47.56          51.49          0.415         -1.826          123.4          54.56          116.9          11.26          130.8
     1.211              -24.25          29.99          47.67          51.47         0.4263         -1.787          122.9           54.4          116.8          11.34          130.5
     1.248              -24.28          29.87          47.79          51.45         0.4396         -1.741          122.3          54.21          116.7          11.42          130.1
     1.285              -24.32          29.74          47.94          51.43         0.4552         -1.687          121.7          53.98          116.6          11.52          129.7
     1.321              -24.36          29.58          48.11           51.4         0.4738         -1.623          120.9          53.71          116.4          11.63          129.2
     1.358              -24.41          29.39          48.31          51.36         0.4961         -1.546          120.0          53.39          116.2          11.77          128.6
     1.395              -24.47          29.16          48.56          51.32          0.523         -1.453          118.9           53.0          115.9          11.94          127.8
     1.432              -24.55          28.88          48.87          51.26         0.5559          -1.34          117.5          52.53          115.6          12.15          126.9
     1.468              -24.64          28.54          49.24           51.2         0.5965           -1.2          115.8          51.94          115.2          12.41          125.8
     1.505              -24.76          28.11          49.71          51.12         0.6472         -1.025          113.7          51.21          114.8          12.72          124.4
     1.542              -24.91          27.56           50.3          51.01          0.711        -0.8048          111.0           50.3          114.2          13.12          122.7
     1.578               -25.1          26.87          51.05          50.88         0.7921        -0.5251          107.6          49.13          113.4          13.63          120.4
     1.615              -25.34          25.99          52.01          50.71         0.8959         -0.167          103.3          47.63          112.4          14.29          117.6
     1.652              -25.65          24.85          53.24           50.5          1.029         0.2925          97.68          45.71          111.2          15.12          113.9
     1.689              -26.05           23.4          54.81          50.23          1.199         0.8794          90.57          43.26          109.6          16.19          109.3
     1.725              -26.54          21.58          56.78          49.88          1.413          1.617          81.62          40.18          107.6          17.54          103.4
     1.762              -27.15          19.36          59.19          49.46          1.674          2.517          70.71          36.42          105.2          19.17          96.24
     1.799              -27.85          16.78          61.99          48.97          1.976          3.559          58.07          32.07          102.4          21.07          87.94
     1.835              -28.61          13.99          65.01          48.44          2.303          4.688          44.38          27.35          99.31          23.13          78.96
     1.872              -29.38           11.2          68.03          47.92          2.631          5.817          30.69          22.64          96.25          25.18          69.97
     1.909              -30.08          8.629          70.82          47.43          2.933          6.859          18.05          18.28          93.43          27.08          61.68
     1.945              -30.69          6.408          73.23          47.01          3.194          7.759           7.14          14.53           91.0          28.72          54.52
     1.982              -31.18          4.585          75.21          46.66          3.408          8.497          -1.81          11.44           89.0          30.06          48.65
     2.019              -31.58          3.135          76.78          46.39          3.578          9.083         -8.928          8.993          87.41          31.13          43.98
     2.056              -31.89          1.999          78.01          46.17          3.711          9.543          -14.5          7.073          86.17          31.97          40.32
     2.092              -32.13          1.115          78.97          46.01          3.815          9.901         -18.84          5.578           85.2          32.62          37.47
     2.129              -32.32         0.4238          79.72          45.88          3.896          10.18         -22.24          4.409          84.44          33.13          35.24
     2.166              -32.47        -0.1198          80.31          45.77           3.96           10.4          -24.9           3.49          83.85          33.53          33.49
